<svg width="244" height="158" viewBox="0 0 244 158" fill="none" xmlns="http://www.w3.org/2000/svg">
<path d="M167.061 1H17.6702C8.4635 1 1 8.4635 1 17.6702V137.148C1 146.268 8.32804 153.695 17.4468 153.817L224.033 156.586C233.022 156.707 240.487 149.678 240.908 140.698L243.182 92.1843C243.627 82.6816 236.043 74.7335 226.53 74.7335H200.401C191.194 74.7335 183.731 67.27 183.731 58.0633V17.6702C183.731 8.4635 176.267 1 167.061 1Z" fill="white" stroke="white" stroke-width="1.28232"/>
<path d="M157.197 6.12927H21.5693C13.042 6.12927 6.12927 13.042 6.12927 21.5693V129.172C6.12927 139.389 14.299 147.729 24.5132 147.941L217.251 151.939C227.353 152.148 235.809 144.324 236.383 134.235L238.384 99.0608C238.996 88.291 230.428 79.2216 219.641 79.2216H194.743C184.375 79.2216 175.97 70.8166 175.97 60.4484V24.9025C175.97 14.5343 167.565 6.12927 157.197 6.12927Z" fill="#F8F4FF" stroke="white" stroke-width="1.14854"/>
</svg>
